<?xml version="1.0" standalone="no"?>
<!DOCTYPE svg PUBLIC "-//W3C//DTD SVG 20010904//EN"
 "http://www.w3.org/TR/2001/REC-SVG-20010904/DTD/svg10.dtd">
<svg version="1.0" xmlns="http://www.w3.org/2000/svg"
 width="500.000000pt" height="500.000000pt" viewBox="0 0 500.000000 500.000000"
 preserveAspectRatio="xMidYMid meet">

<g transform="translate(0.000000,500.000000) scale(0.100000,-0.100000)"
fill="#000000" stroke="none">
<path d="M1890 2949 c-85 -18 -289 -61 -453 -97 -113 -25 -145 -54 -121 -116
3 -8 222 -223 487 -478 265 -255 533 -512 595 -573 217 -210 224 -215 297
-215 28 0 93 13 145 29 52 16 151 45 220 65 69 20 170 50 225 66 55 16 161 48
235 70 144 42 170 59 170 111 0 37 -14 51 -320 324 -80 71 -147 132 -150 135
-3 3 -43 39 -90 80 -47 41 -92 82 -100 91 -8 8 -53 49 -100 90 -47 41 -87 77
-90 80 -37 42 -203 179 -217 179 -55 -1 -38 -21 169 -206 117 -104 222 -198
234 -209 11 -11 59 -54 105 -95 46 -41 86 -77 89 -80 3 -3 68 -61 145 -129
160 -142 255 -232 255 -242 0 -8 -58 -28 -150 -53 -30 -8 -100 -28 -155 -44
-55 -17 -170 -51 -255 -75 -85 -25 -194 -57 -243 -71 -48 -14 -105 -26 -128
-26 -47 0 -29 -15 -409 350 -343 330 -679 653 -804 772 -54 52 -95 98 -89 101
10 6 125 33 403 93 96 21 179 41 183 45 5 4 7 16 5 27 -3 19 -4 19 -88 1z
m1370 -1300 c0 -11 -60 -39 -85 -39 -26 0 -13 33 15 41 39 11 70 10 70 -2z"/>
</g>
</svg>
